<?xml version="1.0" encoding="UTF-8" standalone="no"?>
<svg
   xmlns:dc="http://purl.org/dc/elements/1.1/"
   xmlns:cc="http://creativecommons.org/ns#"
   xmlns:rdf="http://www.w3.org/1999/02/22-rdf-syntax-ns#"
   xmlns:svg="http://www.w3.org/2000/svg"
   xmlns="http://www.w3.org/2000/svg"
   xmlns:sodipodi="http://sodipodi.sourceforge.net/DTD/sodipodi-0.dtd"
   xmlns:inkscape="http://www.inkscape.org/namespaces/inkscape"
   width="131.729"
   height="27"
   viewBox="0 0 34.853298 7.1437502"
   version="1.1"
   id="svg1323"
   inkscape:version="1.0rc1 (09960d6, 2020-04-09)"
   sodipodi:docname="logo.svg">
  <defs
     id="defs1317" />
  <sodipodi:namedview
     id="base"
     pagecolor="#ffffff"
     bordercolor="#666666"
     borderopacity="1.0"
     inkscape:pageopacity="0.0"
     inkscape:pageshadow="2"
     inkscape:zoom="4"
     inkscape:cx="121.55219"
     inkscape:cy="13.677944"
     inkscape:document-units="px"
     inkscape:current-layer="layer1"
     showgrid="false"
     units="px"
     inkscape:window-width="1680"
     inkscape:window-height="962"
     inkscape:window-x="0"
     inkscape:window-y="23"
     inkscape:window-maximized="1"
     inkscape:document-rotation="0" />
  <metadata
     id="metadata1320">
    <rdf:RDF>
      <cc:Work
         rdf:about="">
        <dc:format>image/svg+xml</dc:format>
        <dc:type
           rdf:resource="http://purl.org/dc/dcmitype/StillImage" />
        <dc:title />
      </cc:Work>
    </rdf:RDF>
  </metadata>
  <g
     inkscape:label="Ebene 1"
     inkscape:groupmode="layer"
     id="layer1"
     transform="translate(0,-289.85624)">
    <path
       transform="matrix(0.26458333,0,0,0.26458333,0,289.85624)"
       d="M 10.222656 0 L 10.21875 0.0078125 L 3.5175781 0.0078125 A 3.51866 3.51866 0 0 0 0 3.5253906 L 0 18.451172 A 3.51866 3.51866 0 0 0 0.40820312 20.091797 C 0.37121175 20.391891 0.28820462 20.731003 0.27539062 21.025391 C 0.26330181 21.326241 0.25902587 21.619279 0.28320312 21.953125 C 0.30496262 22.286857 0.23011013 22.542598 0.60742188 23.447266 C 1.5056105 25.597401 3.0743557 25.934822 4.1855469 26.232422 C 5.2576189 26.51891 6.3844774 26.582217 8.1230469 26.564453 L 9.6113281 26.550781 A 3.51866 3.51866 0 0 0 11.388672 26.042969 A 3.51866 3.51866 0 0 0 12.611328 26.546875 L 12.882812 26.601562 C 12.882812 26.601751 12.883368 26.601298 12.890625 26.601562 L 12.900391 26.601562 C 13.629966 26.750098 14.427426 26.849937 15.191406 26.917969 C 16.722582 27.054788 18.234657 27.024717 19.787109 26.794922 C 21.100012 26.600654 22.316271 26.303117 23.457031 25.861328 C 24.041084 25.635312 24.570781 25.430937 25.224609 24.976562 C 25.275142 24.942547 25.325453 24.870519 25.376953 24.830078 C 27.21448 26.226689 29.523785 26.962891 31.880859 26.962891 C 34.524822 26.962891 37.115118 26.040772 39.023438 24.287109 C 40.941499 26.060842 43.559612 26.962891 46.214844 26.962891 C 48.782186 26.962891 51.292896 26.085524 53.185547 24.431641 C 53.303279 24.569593 53.387853 24.725453 53.519531 24.855469 C 55.131413 26.447822 57.318658 26.962891 59.416016 26.962891 C 60.638281 26.962891 61.855087 26.781785 63.015625 26.412109 A 3.51866 3.51866 0 0 0 64.285156 25.683594 C 64.363733 25.721389 64.428518 25.782832 64.507812 25.818359 A 3.51866 3.51866 0 0 0 64.535156 25.830078 C 66.300661 26.602538 68.234602 26.962891 70.222656 26.962891 C 72.960671 26.962891 75.544416 26.358425 77.607422 24.796875 C 77.738949 24.697095 77.835986 24.559266 77.960938 24.451172 C 79.81771 26.085137 82.289943 26.962891 84.808594 26.962891 C 87.210563 26.962891 89.610143 26.192849 91.414062 24.626953 C 93.286573 26.157284 95.702624 26.962891 98.169922 26.962891 C 100.06879 26.962891 101.93215 26.464811 103.55273 25.558594 A 3.51866 3.51866 0 0 0 106.13672 26.695312 L 110.62695 26.695312 A 3.51866 3.51866 0 0 0 114.09766 23.732422 C 114.17888 23.817083 114.23764 23.920315 114.32227 24.001953 A 3.51866 3.51866 0 0 0 114.33203 24.009766 C 116.38295 25.980714 119.23033 26.962891 122.13867 26.962891 C 123.76772 26.962891 125.3849 26.639682 126.86719 25.982422 A 3.51866 3.51866 0 0 0 126.88086 25.974609 C 128.36298 25.310244 129.70874 24.30746 130.67383 22.974609 A 3.51866 3.51866 0 0 0 131.03125 19.476562 A 3.51866 3.51866 0 0 0 131.72852 17.380859 L 131.72852 15.636719 C 131.72861 12.781588 130.91315 10.008842 129.02734 7.9902344 C 127.16765 5.9917714 124.41196 4.9785156 121.6582 4.9785156 C 120.09519 4.9785156 118.58333 5.3557751 117.17773 5.9765625 A 3.51866 3.51866 0 0 0 115.91211 5.2890625 C 115.14097 5.0581334 114.39121 4.9824219 113.65039 4.9824219 C 112.90138 4.9824219 112.16974 5.1668225 111.46289 5.4355469 A 3.51866 3.51866 0 0 0 110.34766 5.2480469 L 106.13672 5.2480469 A 3.51866 3.51866 0 0 0 103.54297 6.3964844 C 101.91909 5.4847111 100.05036 4.9804688 98.144531 4.9804688 C 96.231013 4.9804688 94.33724 5.412351 92.697266 6.3574219 C 92.235018 6.6238786 91.861073 7.0114684 91.451172 7.3535156 C 89.641545 5.7451755 87.21091 4.9824219 84.769531 4.9824219 C 83.163187 4.9824219 81.595667 5.3760366 80.158203 6.0605469 C 79.934795 5.507224 79.739747 4.93912 79.408203 4.4433594 C 78.417173 2.9529027 76.968135 1.786732 75.341797 1.0566406 C 73.733665 0.3312359 71.965348 0 70.154297 0 C 68.349482 0 66.60105 0.29818179 64.990234 0.9453125 C 63.883324 1.3840779 62.900962 2.0630152 62.011719 2.8554688 A 3.51866 3.51866 0 0 0 59.376953 1.6660156 L 54.888672 1.6660156 A 3.51866 3.51866 0 0 0 51.369141 5.1835938 L 51.369141 5.6777344 A 3.51866 3.51866 0 0 0 50.861328 6.0175781 C 49.41262 5.3530616 47.815746 4.9804688 46.189453 4.9804688 C 44.276011 4.9804688 42.382234 5.4121998 40.742188 6.3574219 C 40.115803 6.7183668 39.581996 7.2113462 39.054688 7.7070312 C 37.141822 5.9212045 34.525978 4.9804688 31.855469 4.9804688 C 29.942001 4.9804688 28.04825 5.4121998 26.408203 6.3574219 C 25.417584 6.9282817 24.591087 7.7269187 23.865234 8.6113281 C 23.746765 8.4986982 23.660444 8.3581578 23.535156 8.2519531 C 21.266354 6.3260193 18.27525 5.5605469 15.056641 5.5605469 C 14.605467 5.5605469 14.185939 5.6939341 13.742188 5.734375 L 13.742188 3.5175781 A 3.51866 3.51866 0 0 0 10.222656 0 z M 3.5175781 3.5253906 L 10.21875 3.5253906 L 10.21875 10.451172 C 11.46473 9.5378112 13.075516 9.0858619 15.050781 9.0859375 C 17.728447 9.0859375 19.795722 9.7016201 21.253906 10.939453 C 22.712163 12.177173 23.443359 13.918985 23.443359 16.164062 L 23.443359 16.380859 C 23.443359 17.189149 23.34485 17.92819 23.160156 18.603516 C 23.125082 18.603516 23.007361 18.68128 22.896484 18.775391 C 22.17612 19.386049 20.726926 19.871375 19.158203 20.025391 C 18.262698 20.113454 16.650584 20.120449 15.695312 20.042969 C 15.475782 20.024071 15.18099 19.987139 14.865234 19.941406 C 15.615603 19.714257 16.131335 19.285552 16.404297 18.648438 C 16.61609 18.161823 16.722656 17.316872 16.722656 16.113281 C 16.722656 14.781565 16.443499 13.834899 15.886719 13.271484 C 15.343236 12.699566 14.501435 12.414062 13.361328 12.414062 C 11.850123 12.414062 10.801956 12.784856 10.21875 13.527344 L 10.21875 19.033203 C 10.24052 19.05966 10.267304 19.084871 10.289062 19.111328 C 10.050914 19.103769 9.8957882 19.095703 9.453125 19.095703 C 8.6439818 19.095703 7.3096634 19.107802 6.4863281 19.119141 C 4.8329598 19.145597 4.6601997 19.126767 4.03125 18.806641 C 4.03125 18.806641 3.8263648 18.720943 3.7363281 18.658203 C 3.6541253 18.600754 3.5175781 18.451172 3.5175781 18.451172 L 3.5175781 3.5253906 z M 70.150391 3.5253906 C 71.54453 3.5253906 72.79142 3.7742875 73.892578 4.2714844 C 75.002584 4.7687946 75.863863 5.4788162 76.476562 6.4023438 C 77.089315 7.3170272 77.396484 8.3658104 77.396484 9.546875 L 72.734375 9.546875 C 72.734375 8.756538 72.490347 8.1440836 72.001953 7.7089844 C 71.522444 7.2738096 70.868796 7.0546875 70.042969 7.0546875 C 69.208222 7.0546875 68.548953 7.2422328 68.060547 7.6152344 C 67.581012 7.9792029 67.339844 8.4453065 67.339844 9.0136719 C 67.339844 9.5109065 67.605853 9.962678 68.138672 10.371094 C 68.671472 10.770703 69.608295 11.187834 70.949219 11.623047 C 72.29007 12.049264 73.392491 12.512455 74.253906 13.009766 C 76.349601 14.217438 77.396484 15.881513 77.396484 18.003906 C 77.396484 19.699969 76.757281 21.032025 75.478516 22 C 74.199777 22.967937 72.445683 23.451172 70.216797 23.451172 C 68.645001 23.451172 67.220168 23.172727 65.941406 22.613281 C 64.671561 22.044954 63.712721 21.271703 63.064453 20.294922 C 62.425082 19.309221 62.105469 18.177165 62.105469 16.898438 L 66.794922 16.898438 C 66.794922 17.93743 67.059012 18.705815 67.591797 19.203125 C 68.13349 19.691516 69.009064 19.935547 70.216797 19.935547 C 70.989359 19.935547 71.596997 19.771725 72.041016 19.443359 C 72.493932 19.105848 72.720703 18.63503 72.720703 18.03125 C 72.720703 17.347458 72.476653 16.815402 71.988281 16.433594 C 71.508746 16.051748 70.65994 15.654585 69.443359 15.246094 C 68.226801 14.83764 67.233477 14.442393 66.460938 14.060547 C 63.947896 12.826267 62.691406 11.132493 62.691406 8.9746094 C 62.691406 7.9001275 63.00139 6.9537392 63.623047 6.1367188 C 64.253521 5.3108542 65.143518 4.6716508 66.289062 4.21875 C 67.434562 3.7569673 68.720663 3.5253906 70.150391 3.5253906 z M 54.882812 5.1914062 L 59.373047 5.1914062 L 59.373047 8.7734375 L 61.744141 8.7734375 L 61.744141 11.890625 L 59.373047 11.890625 L 59.373047 18.484375 C 59.373047 19.026057 59.470576 19.402069 59.666016 19.615234 C 59.861379 19.8284 60.24696 19.935547 60.824219 19.935547 C 61.268211 19.935547 61.641409 19.909138 61.943359 19.855469 L 61.943359 23.066406 C 61.135232 23.323792 60.291246 23.451172 59.412109 23.451172 C 57.867008 23.451172 56.727284 23.087728 55.990234 22.359375 C 55.253166 21.631211 54.882812 20.52598 54.882812 19.042969 L 54.882812 11.888672 L 53.044922 11.888672 L 53.044922 8.7734375 L 54.882812 8.7734375 L 54.882812 5.1914062 z M 31.849609 8.5058594 C 34.007486 8.5058594 35.709877 9.1767151 36.953125 10.517578 C 38.196374 11.849597 38.816406 13.664888 38.816406 15.964844 L 38.816406 16.125 C 38.816406 18.371665 38.189645 20.155303 36.9375 21.478516 C 35.694325 22.792733 34.008163 23.451172 31.876953 23.451172 C 29.82565 23.451172 28.178601 22.838755 26.935547 21.613281 C 25.692299 20.379001 25.021505 18.708032 24.923828 16.603516 L 24.910156 15.845703 C 24.910156 14.407102 25.190537 13.126704 25.75 12.007812 C 26.309415 10.880039 27.112262 10.015964 28.160156 9.4121094 C 29.207978 8.8082165 30.437749 8.5058594 31.849609 8.5058594 z M 46.183594 8.5058594 C 48.34147 8.5058594 50.041934 9.1767151 51.285156 10.517578 C 52.52833 11.849597 53.150391 13.664888 53.150391 15.964844 L 53.150391 16.125 C 53.150391 18.371665 52.525512 20.155303 51.273438 21.478516 C 50.030264 22.792733 48.342122 23.451172 46.210938 23.451172 C 44.159633 23.451172 42.512731 22.838755 41.269531 21.613281 C 40.026309 20.379001 39.355491 18.708032 39.257812 16.603516 L 39.246094 15.845703 C 39.246094 14.407102 39.524577 13.126704 40.083984 12.007812 C 40.643472 10.880039 41.446244 10.015964 42.494141 9.4121094 C 43.541939 8.8082165 44.771736 8.5058594 46.183594 8.5058594 z M 84.763672 8.5058594 C 86.637392 8.5058594 88.125477 9.0235079 89.226562 10.0625 C 90.327743 11.101492 90.876953 12.509194 90.876953 14.285156 L 86.669922 14.285156 C 86.669922 13.539266 86.487257 12.96594 86.123047 12.566406 C 85.759003 12.166759 85.270906 11.966797 84.658203 11.966797 C 83.49491 11.966797 82.816469 12.710348 82.621094 14.193359 C 82.558958 14.663948 82.527344 15.310892 82.527344 16.136719 C 82.527344 17.58424 82.700478 18.588954 83.046875 19.148438 C 83.393269 19.707845 83.942422 19.986328 84.697266 19.986328 C 85.327736 19.986328 85.815769 19.817905 86.162109 19.480469 C 86.508427 19.134264 86.678819 18.65563 86.669922 18.042969 L 90.876953 18.042969 C 90.876953 19.623567 90.31043 20.919332 89.173828 21.931641 C 88.046055 22.944025 86.589558 23.449219 84.804688 23.449219 C 82.708996 23.449219 81.057293 22.792771 79.849609 21.478516 C 78.641926 20.164223 78.037109 18.34418 78.037109 16.017578 L 78.037109 15.830078 C 78.037109 14.373751 78.305106 13.090478 78.837891 11.980469 C 79.379584 10.86154 80.155664 10.005129 81.167969 9.4101562 C 82.180345 8.8062633 83.378358 8.5058594 84.763672 8.5058594 z M 98.138672 8.5058594 C 100.29655 8.5058594 101.99699 9.1767151 103.24023 10.517578 C 104.48341 11.849597 105.10547 13.664888 105.10547 15.964844 L 105.10547 16.125 C 105.10547 18.371665 104.48059 20.155303 103.22852 21.478516 C 101.98527 22.792733 100.2972 23.451172 98.166016 23.451172 C 96.114711 23.451172 94.467787 22.838755 93.224609 21.613281 C 91.981364 20.379001 91.310569 18.708032 91.212891 16.603516 L 91.201172 15.845703 C 91.201172 14.407102 91.479658 13.126704 92.039062 12.007812 C 92.598478 10.880039 93.401394 10.015964 94.449219 9.4121094 C 95.497089 8.8082165 96.726739 8.5058594 98.138672 8.5058594 z M 113.64453 8.5058594 C 114.12407 8.5058594 114.54127 8.559055 114.89648 8.6660156 L 114.81641 12.833984 L 113.33984 12.728516 C 111.92794 12.728516 111.02065 13.172547 110.62109 14.060547 L 110.62109 23.185547 L 106.13281 23.185547 L 106.13281 8.7734375 L 110.3418 8.7734375 L 110.48828 10.625 C 111.24303 9.2130819 112.29478 8.5058594 113.64453 8.5058594 z M 121.65234 8.5058594 C 123.67705 8.5058594 125.27508 9.1355206 126.44727 10.396484 C 127.61943 11.648642 128.20515 13.39982 128.20508 15.646484 L 128.20508 17.390625 L 119.28125 17.390625 C 119.44105 18.198688 119.79236 18.833177 120.33398 19.294922 C 120.87568 19.756705 121.57811 19.988281 122.43945 19.988281 C 123.86028 19.988281 124.96835 19.490676 125.76758 18.496094 L 127.82031 20.919922 C 127.26092 21.692495 126.46565 22.309739 125.43555 22.771484 C 124.41434 23.224385 123.31388 23.451172 122.13281 23.451172 C 119.92165 23.451172 118.13119 22.792771 116.76367 21.478516 C 115.39613 20.155341 114.71289 18.439646 114.71289 16.326172 L 114.71289 15.951172 C 114.71289 14.477118 114.98369 13.176601 115.52539 12.048828 C 116.07596 10.921055 116.876 10.052152 117.92383 9.4394531 C 118.9717 8.817872 120.21381 8.5058594 121.65234 8.5058594 z M 31.849609 11.966797 C 30.348897 11.966797 29.536405 13.081646 29.412109 15.310547 L 29.400391 16.125 C 29.400391 17.457019 29.608116 18.433106 30.025391 19.054688 C 30.44274 19.676269 31.060001 19.986328 31.876953 19.986328 C 33.475366 19.986328 34.292633 18.756705 34.328125 16.296875 L 34.328125 15.84375 C 34.328125 13.259649 33.501358 11.966797 31.849609 11.966797 z M 46.183594 11.966797 C 44.682883 11.966797 43.870365 13.081646 43.746094 15.310547 L 43.734375 16.125 C 43.734375 17.457019 43.942115 18.433106 44.359375 19.054688 C 44.776699 19.676269 45.393985 19.986328 46.210938 19.986328 C 47.809326 19.986328 48.626593 18.756705 48.662109 16.296875 L 48.662109 15.84375 C 48.662109 13.259649 47.835346 11.966797 46.183594 11.966797 z M 98.138672 11.966797 C 96.637961 11.966797 95.825273 13.081646 95.701172 15.310547 L 95.6875 16.125 C 95.6875 17.457019 95.897193 18.433106 96.314453 19.054688 C 96.731853 19.676269 97.34711 19.986328 98.164062 19.986328 C 99.762451 19.986328 100.57974 18.756705 100.61523 16.296875 L 100.61523 15.84375 C 100.61523 13.259649 99.790348 11.966797 98.138672 11.966797 z M 121.625 11.966797 C 120.31074 11.966797 119.52991 12.837653 119.28125 14.578125 L 123.81055 14.578125 L 123.81055 14.232422 C 123.82755 13.513102 123.64554 12.957096 123.26367 12.566406 C 122.88184 12.166759 122.33543 11.966797 121.625 11.966797 z M 23.427734 19.757812 C 23.645853 19.767243 23.804705 21.136053 23.636719 21.576172 C 23.483191 21.978276 23.147593 22.210718 22.183594 22.583984 C 21.332599 22.913559 20.380195 23.15361 19.267578 23.318359 C 18.495644 23.432879 16.317339 23.488961 15.5 23.416016 C 14.889352 23.36159 14.017082 23.243557 13.589844 23.15625 L 13.302734 23.097656 L 13.179688 22.771484 C 13.087815 22.529595 13.022035 22.431394 12.923828 22.392578 C 12.112702 22.073208 11.647656 21.974609 10.939453 21.974609 C 10.576743 21.974609 9.996117 22.090113 9.90625 22.179688 C 9.8813429 22.206144 9.7973264 22.406292 9.71875 22.628906 L 9.5761719 23.033203 L 8.0859375 23.048828 C 6.4219071 23.063946 5.7804299 23.018111 5.0957031 22.835938 C 4.3933996 22.647717 3.9822845 22.402046 3.8535156 22.09375 C 3.7299697 21.797435 3.7799175 20.637158 3.9433594 20.029297 L 4.0019531 19.8125 L 4.296875 19.960938 C 4.9258247 20.278418 5.0986574 20.30065 6.7519531 20.273438 C 7.5752884 20.262099 8.9096064 20.251953 9.71875 20.251953 C 11.182809 20.251953 11.194588 20.251355 11.960938 20.419922 C 12.384477 20.512142 12.861025 20.633075 13.019531 20.6875 C 13.447495 20.834524 15.168578 21.133089 15.958984 21.197266 C 16.914231 21.274746 18.528323 21.264664 19.423828 21.177734 C 20.992551 21.023908 22.441624 20.538355 23.162109 19.927734 C 23.273568 19.833246 23.393499 19.757812 23.427734 19.757812 z M 2.4453125 21.947266 C 2.4598183 21.954825 2.5033322 21.96705 2.5195312 21.974609 C 2.5267842 21.974609 2.6640625 22.050781 2.6640625 22.050781 L 2.4453125 21.947266 z "
       style="color:#000000;font-style:normal;font-variant:normal;font-weight:900;font-stretch:normal;font-size:medium;line-height:125%;font-family:Roboto;-inkscape-font-specification:'Roboto Heavy';font-variant-ligatures:normal;font-variant-position:normal;font-variant-caps:normal;font-variant-numeric:normal;font-variant-alternates:normal;font-feature-settings:normal;text-indent:0;text-align:start;text-decoration:none;text-decoration-line:none;text-decoration-style:solid;text-decoration-color:#000000;letter-spacing:-0.418042px;word-spacing:0px;text-transform:none;writing-mode:lr-tb;direction:ltr;text-orientation:mixed;dominant-baseline:auto;baseline-shift:baseline;text-anchor:start;white-space:normal;shape-padding:0;clip-rule:nonzero;display:inline;overflow:visible;visibility:visible;isolation:auto;mix-blend-mode:normal;color-interpolation:sRGB;color-interpolation-filters:linearRGB;solid-color:#000000;solid-opacity:1;vector-effect:none;fill:#212529;fill-opacity:1;fill-rule:nonzero;stroke:none;stroke-width:7.03661;stroke-linecap:round;stroke-linejoin:round;stroke-miterlimit:4;stroke-dasharray:none;stroke-dashoffset:0;stroke-opacity:1;color-rendering:auto;image-rendering:auto;shape-rendering:auto;text-rendering:auto;enable-background:accumulate"
       id="path1312" />
    <path
       d="m 6.5912237,294.04896 q 0,-0.57094 0.2220309,-1.015 0.2220308,-0.44758 0.6378948,-0.68723 0.4158641,-0.23966 0.9762219,-0.23966 0.856401,0 1.3498021,0.53217 0.4934016,0.52864 0.4934016,1.44143 v 0.0423 q 0,0.89164 -0.4969263,1.41676 -0.4934011,0.52159 -1.339228,0.52159 -0.8141046,0 -1.3075058,-0.48635 -0.4934011,-0.48987 -0.5321665,-1.32513 z m 1.187685,0.074 q 0,0.52864 0.1656419,0.77535 0.1656356,0.2467 0.4898701,0.2467 0.6343701,0 0.648469,-0.97623 v -0.11982 q 0,-1.02557 -0.6555184,-1.02557 -0.5955985,0 -0.6449379,0.88459 z"
       style="font-style:normal;font-variant:normal;font-weight:900;font-stretch:normal;font-size:medium;line-height:125%;font-family:Roboto;-inkscape-font-specification:'Roboto Heavy';letter-spacing:-0.418042px;word-spacing:0px;fill:none;fill-opacity:1;stroke:none;stroke-width:0.180443px;stroke-linecap:butt;stroke-linejoin:miter;stroke-opacity:1"
       id="path1189"
       inkscape:connector-curvature="0" />
    <path
       d="m 10.383781,294.04896 q 0,-0.57094 0.222024,-1.015 0.222031,-0.44758 0.637895,-0.68723 0.415871,-0.23966 0.976229,-0.23966 0.856401,0 1.349802,0.53217 0.493394,0.52864 0.493394,1.44143 v 0.0423 q 0,0.89164 -0.496919,1.41676 -0.493401,0.52159 -1.339228,0.52159 -0.814111,0 -1.307512,-0.48635 -0.493395,-0.48987 -0.532167,-1.32513 z m 1.187679,0.074 q 0,0.52864 0.165641,0.77535 0.165642,0.2467 0.489877,0.2467 0.63437,0 0.648469,-0.97623 v -0.11982 q 0,-1.02557 -0.655518,-1.02557 -0.595605,0 -0.644945,0.88459 z"
       style="font-style:normal;font-variant:normal;font-weight:900;font-stretch:normal;font-size:medium;line-height:125%;font-family:Roboto;-inkscape-font-specification:'Roboto Heavy';letter-spacing:-0.418042px;word-spacing:0px;fill:none;fill-opacity:1;stroke:none;stroke-width:0.180443px;stroke-linecap:butt;stroke-linejoin:miter;stroke-opacity:1"
       id="path1191"
       inkscape:connector-curvature="0" />
    <path
       d="m 15.709393,291.22953 v 0.94803 h 0.627327 v 0.82468 h -0.627327 v 1.74452 q 0,0.21498 0.07754,0.29957 0.07753,0.0846 0.306611,0.0846 0.176216,0 0.296043,-0.0212 v 0.84935 q -0.320709,0.10221 -0.669617,0.10221 -0.613222,0 -0.90574,-0.289 -0.292512,-0.28898 -0.292512,-0.87754 v -1.89254 h -0.486352 v -0.82468 h 0.486352 v -0.94803 z"
       style="font-style:normal;font-variant:normal;font-weight:900;font-stretch:normal;font-size:medium;line-height:125%;font-family:Roboto;-inkscape-font-specification:'Roboto Heavy';letter-spacing:-0.418042px;word-spacing:0px;fill:none;fill-opacity:1;stroke:none;stroke-width:0.180443px;stroke-linecap:butt;stroke-linejoin:miter;stroke-opacity:1"
       id="path1193"
       inkscape:connector-curvature="0" />
    <path
       d="m 19.241154,294.62694 q 0,-0.27137 -0.193839,-0.42292 -0.190309,-0.15154 -0.673136,-0.31366 -0.482827,-0.16211 -0.789438,-0.31366 -0.99737,-0.48987 -0.99737,-1.34627 0,-0.42644 0.246697,-0.75068 0.250222,-0.32776 0.704858,-0.5075 0.45463,-0.18326 1.022043,-0.18326 0.553309,0 0.990321,0.19736 0.440537,0.19736 0.683709,0.56389 0.24318,0.363 0.24318,0.83173 h -1.2335 q 0,-0.31366 -0.19384,-0.48635 -0.190308,-0.17269 -0.518067,-0.17269 -0.331284,0 -0.525118,0.14802 -0.190308,0.1445 -0.190308,0.37005 0,0.19736 0.211457,0.35948 0.211456,0.15859 0.743623,0.33128 0.532166,0.16916 0.874018,0.36652 0.831735,0.47931 0.831735,1.32161 0,0.67313 -0.5075,1.05728 -0.507494,0.38415 -1.392093,0.38415 -0.623796,0 -1.131296,-0.22203 -0.503969,-0.22556 -0.76124,-0.61323 -0.253747,-0.39119 -0.253747,-0.89869 h 1.240543 q 0,0.41235 0.211457,0.6097 0.214981,0.19384 0.694283,0.19384 0.306611,0 0.482827,-0.1304 0.179741,-0.13392 0.179741,-0.37357 z"
       style="font-style:normal;font-variant:normal;font-weight:900;font-stretch:normal;font-size:medium;line-height:125%;font-family:Roboto;-inkscape-font-specification:'Roboto Heavy';letter-spacing:-0.418042px;word-spacing:0px;fill:none;fill-opacity:1;stroke:none;stroke-width:0.180443px;stroke-linecap:butt;stroke-linejoin:miter;stroke-opacity:1"
       id="path1195"
       inkscape:connector-curvature="0" />
    <path
       d="m 22.409909,295.14501 q 0.250222,0 0.387673,-0.13393 0.137444,-0.13744 0.133919,-0.38062 h 1.113673 q 0,0.62732 -0.451105,1.02909 -0.447586,0.40177 -1.155969,0.40177 -0.831728,0 -1.31103,-0.52159 -0.479303,-0.5216 -0.479303,-1.44496 v -0.0493 q 0,-0.57799 0.211457,-1.01852 0.214982,-0.44406 0.616753,-0.68018 0.401765,-0.23966 0.951555,-0.23966 0.743624,0 1.18063,0.41234 0.437012,0.41235 0.437012,1.1172 h -1.113673 q 0,-0.29604 -0.144493,-0.45463 -0.144494,-0.15859 -0.387673,-0.15859 -0.461679,0 -0.539216,0.58855 -0.02469,0.18679 -0.02469,0.51455 0,0.57445 0.137444,0.79648 0.137451,0.22204 0.437012,0.22204 z"
       style="font-style:normal;font-variant:normal;font-weight:900;font-stretch:normal;font-size:medium;line-height:125%;font-family:Roboto;-inkscape-font-specification:'Roboto Heavy';letter-spacing:-0.418042px;word-spacing:0px;fill:none;fill-opacity:1;stroke:none;stroke-width:0.180443px;stroke-linecap:butt;stroke-linejoin:miter;stroke-opacity:1"
       id="path1198"
       inkscape:connector-curvature="0" />
    <path
       d="m 24.130189,294.04896 q 0,-0.57094 0.222024,-1.015 0.222031,-0.44758 0.637895,-0.68723 0.415871,-0.23966 0.976228,-0.23966 0.856402,0 1.349803,0.53217 0.493394,0.52864 0.493394,1.44143 v 0.0423 q 0,0.89164 -0.496919,1.41676 -0.493401,0.52159 -1.339228,0.52159 -0.814111,0 -1.307506,-0.48635 -0.493401,-0.48987 -0.532166,-1.32513 z m 1.187678,0.074 q 0,0.52864 0.165642,0.77535 0.165642,0.2467 0.489877,0.2467 0.63437,0 0.648469,-0.97623 v -0.11982 q 0,-1.02557 -0.655519,-1.02557 -0.595604,0 -0.644944,0.88459 z"
       style="font-style:normal;font-variant:normal;font-weight:900;font-stretch:normal;font-size:medium;line-height:125%;font-family:Roboto;-inkscape-font-specification:'Roboto Heavy';letter-spacing:-0.418042px;word-spacing:0px;fill:none;fill-opacity:1;stroke:none;stroke-width:0.180443px;stroke-linecap:butt;stroke-linejoin:miter;stroke-opacity:1"
       id="path1200"
       inkscape:connector-curvature="0" />
    <g
       transform="matrix(0.61490582,0,0,0.61490582,393.03936,128.92069)"
       id="g1210"
       style="fill:none;fill-opacity:1">
      <path
         sodipodi:nodetypes="cccaccccccscsccccccsscccc"
         inkscape:connector-curvature="0"
         id="path1206"
         d="m -634.78877,263.24078 -2.88353,0.001 v 6.42282 c 0,0 0.0589,0.0637 0.0942,0.0884 0.0387,0.0271 0.1266,0.0641 0.1266,0.0641 0.27064,0.13663 0.34488,0.14597 1.05627,0.13438 0.35428,-0.005 0.92927,-0.0103 1.27743,-0.0103 0.19048,2.3e-4 0.25726,0.003 0.35968,0.006 -0.009,-0.0114 -0.0212,-0.0217 -0.0305,-0.0336 v -2.36938 c 0.25096,-0.31956 0.70162,-0.47902 1.35186,-0.47902 0.49057,0 0.85289,0.12287 1.08675,0.36896 0.23956,0.24244 0.35917,0.65016 0.35917,1.22317 0,0.51789 -0.0458,0.88154 -0.13694,1.0909 -0.11743,0.27416 -0.33912,0.45879 -0.66199,0.55655 0.13589,0.0196 0.26257,0.0357 0.35708,0.0434 0.411,0.0334 1.10503,0.0295 1.49035,-0.008 0.675,-0.0663 1.2987,-0.27469 1.60869,-0.53742 0.0478,-0.0405 0.0981,-0.0736 0.11319,-0.0739 0.0795,-0.29057 0.12141,-0.6082 0.12141,-0.95602 v -0.0935 c 0,-0.96602 -0.31358,-1.71535 -0.94101,-2.24793 -0.62744,-0.5326 -1.51744,-0.7984 -2.6696,-0.7984 -0.84992,-3e-5 -1.54281,0.19558 -2.07896,0.58859 z"
         style="font-style:normal;font-variant:normal;font-weight:900;font-stretch:normal;font-size:medium;line-height:125%;font-family:Roboto;-inkscape-font-specification:'Roboto Heavy';letter-spacing:-0.418042px;word-spacing:0px;fill:none;fill-opacity:1;stroke:none;stroke-width:0.351531px;stroke-linecap:butt;stroke-linejoin:miter;stroke-opacity:1" />
      <path
         style="opacity:1;fill:none;fill-opacity:1;stroke:none;stroke-width:0.444921;stroke-miterlimit:4;stroke-dasharray:none;stroke-opacity:1"
         d="m -632.51668,271.80112 c -0.26275,-0.0234 -0.63854,-0.0748 -0.82239,-0.11242 l -0.12274,-0.0251 -0.0533,-0.1405 c -0.0395,-0.10401 -0.0682,-0.14634 -0.11047,-0.163 -0.34902,-0.13747 -0.54898,-0.17952 -0.85369,-0.17952 -0.15607,0 -0.40561,0.0495 -0.4443,0.0881 -0.0106,0.0106 -0.0468,0.0975 -0.0806,0.1932 l -0.0614,0.17401 -0.64122,0.006 c -0.71599,0.007 -0.99278,-0.0127 -1.28741,-0.0915 -0.3022,-0.0809 -0.47887,-0.18635 -0.53428,-0.31897 -0.0532,-0.1275 -0.0314,-0.62701 0.0389,-0.88857 l 0.0251,-0.0934 0.12688,0.064 c 0.27063,0.13662 0.34482,0.14606 1.0562,0.13447 0.35427,-0.005 0.92898,-0.0102 1.27714,-0.01 0.62995,7.6e-4 0.63461,7.7e-4 0.96434,0.0729 0.18223,0.0397 0.38713,0.0913 0.45533,0.11473 0.18415,0.0633 0.92539,0.19172 1.2655,0.21936 0.41101,0.0334 1.1052,0.0295 1.49051,-0.008 0.67502,-0.0663 1.29874,-0.27479 1.60875,-0.53756 0.048,-0.0407 0.0994,-0.074 0.11419,-0.074 0.0944,0 0.16264,0.5942 0.0901,0.78422 -0.0661,0.17304 -0.20993,0.27284 -0.62473,0.43344 -0.36617,0.14178 -0.77617,0.24497 -1.25492,0.31584 -0.33214,0.0492 -1.26969,0.0735 -1.62141,0.0421 z"
         id="path1208"
         inkscape:connector-curvature="0" />
    </g>
  </g>
</svg>
