<?xml version="1.0" encoding="UTF-8" standalone="no"?>
<svg
   width="75.511002"
   height="27"
   viewBox="0 0 19.978952 7.1437502"
   version="1.1"
   id="svg1323"
   inkscape:version="1.1.1 (c3084ef, 2021-09-22)"
   sodipodi:docname="logo-sm.svg"
   xmlns:inkscape="http://www.inkscape.org/namespaces/inkscape"
   xmlns:sodipodi="http://sodipodi.sourceforge.net/DTD/sodipodi-0.dtd"
   xmlns="http://www.w3.org/2000/svg"
   xmlns:svg="http://www.w3.org/2000/svg"
   xmlns:rdf="http://www.w3.org/1999/02/22-rdf-syntax-ns#"
   xmlns:cc="http://creativecommons.org/ns#"
   xmlns:dc="http://purl.org/dc/elements/1.1/">
  <defs
     id="defs1317" />
  <sodipodi:namedview
     id="base"
     pagecolor="#ffffff"
     bordercolor="#666666"
     borderopacity="1.0"
     inkscape:pageopacity="0.0"
     inkscape:pageshadow="2"
     inkscape:zoom="4"
     inkscape:cx="66"
     inkscape:cy="19.75"
     inkscape:document-units="px"
     inkscape:current-layer="layer1"
     showgrid="false"
     units="px"
     inkscape:window-width="1680"
     inkscape:window-height="948"
     inkscape:window-x="0"
     inkscape:window-y="25"
     inkscape:window-maximized="1"
     inkscape:document-rotation="0"
     inkscape:pagecheckerboard="0" />
  <metadata
     id="metadata1320">
    <rdf:RDF>
      <cc:Work
         rdf:about="">
        <dc:format>image/svg+xml</dc:format>
        <dc:type
           rdf:resource="http://purl.org/dc/dcmitype/StillImage" />
      </cc:Work>
    </rdf:RDF>
  </metadata>
  <g
     inkscape:label="Ebene 1"
     inkscape:groupmode="layer"
     id="layer1"
     transform="translate(0,-289.85624)">
    <path
       inkscape:connector-curvature="0"
       id="path1235"
       style="color:#000000;font-style:normal;font-variant:normal;font-weight:900;font-stretch:normal;font-size:11.2831px;line-height:125%;font-family:Roboto;-inkscape-font-specification:'Roboto Heavy';font-variant-ligatures:normal;font-variant-position:normal;font-variant-caps:normal;font-variant-numeric:normal;font-variant-alternates:normal;font-variant-east-asian:normal;font-feature-settings:normal;font-variation-settings:normal;text-indent:0;text-align:start;text-decoration:none;text-decoration-line:none;text-decoration-style:solid;text-decoration-color:#000000;letter-spacing:-0.418042px;word-spacing:0px;text-transform:none;writing-mode:lr-tb;direction:ltr;text-orientation:mixed;dominant-baseline:auto;baseline-shift:baseline;text-anchor:start;white-space:normal;shape-padding:0;shape-margin:0;inline-size:0;clip-rule:nonzero;display:inline;overflow:visible;visibility:visible;opacity:1;isolation:auto;mix-blend-mode:normal;color-interpolation:sRGB;color-interpolation-filters:linearRGB;solid-color:#000000;solid-opacity:1;vector-effect:none;fill:#212529;fill-opacity:1;fill-rule:nonzero;stroke:none;stroke-width:2.91042;stroke-linecap:butt;stroke-linejoin:round;stroke-miterlimit:4;stroke-dasharray:none;stroke-dashoffset:0;stroke-opacity:1;color-rendering:auto;image-rendering:auto;shape-rendering:auto;text-rendering:auto;enable-background:accumulate;stop-color:#000000;stop-opacity:1"
       d="M 0.93204723,289.85624 A 0.93214038,0.93214038 0 0 0 0,290.78829 v 3.95425 a 0.93214038,0.93214038 0 0 0 0.1078973,0.43525 c -0.00983,0.0791 -0.031656,0.16892 -0.035079,0.24659 -0.00356,0.0796 -0.00457,0.15675 0.0017,0.24524 0.00559,0.0885 -0.013896,0.1562 0.086392,0.39653 a 0.93214038,0.93214038 0 0 0 0,0.002 c 0.2379602,0.56916 0.65390743,0.65826 0.9482648,0.7371 0.2841558,0.076 0.5826312,0.0935 1.0432659,0.0887 l 0.3941882,-0.005 a 0.93214038,0.93214038 0 0 0 0.4703279,-0.13273 0.93214038,0.93214038 0 0 0 0.3240305,0.13273 l 0.072496,0.0136 c 0.1948826,0.0399 0.407,0.0669 0.6103219,0.0851 a 0.93214038,0.93214038 0 0 0 0.2065415,-0.005 c 0.3354691,0.0176 0.6696841,0.0233 1.0121352,-0.0275 0.3479081,-0.0515 0.6696336,-0.13058 0.9717698,-0.24757 0.146772,-0.0568 0.282952,-0.1135 0.444179,-0.22144 0.419489,0.37286 0.96028,0.51402 1.487429,0.51402 0.32381,0 0.645807,-0.0483 0.95323,-0.14628 a 0.93214038,0.93214038 0 0 0 0.345213,-0.19893 c 0.01993,0.009 0.02988,0.0323 0.04999,0.0414 a 0.93214038,0.93214038 0 0 0 0.0076,0.004 c 0.467498,0.20453 0.979649,0.30019 1.506307,0.30019 0.725369,0 1.409696,-0.1604 1.956435,-0.57424 0.04152,-0.0315 0.05867,-0.0865 0.09764,-0.12115 0.492849,0.43884 1.137911,0.69539 1.809799,0.69539 0.430521,0 0.841791,-0.12845 1.223642,-0.3164 a 0.93214038,0.93214038 0 0 0 0.629199,0.24524 h 1.189564 a 0.93214038,0.93214038 0 0 0 0.932047,-0.93205 v -1.82007 l 0.112524,0.009 a 0.93214038,0.93214038 0 0 0 0.998256,-0.91187 l 0.02151,-1.10449 a 0.93214038,0.93214038 0 0 0 -0.663296,-0.91086 c -0.204847,-0.0615 -0.404441,-0.0811 -0.600391,-0.0811 -0.170819,0 -0.321726,0.10115 -0.485224,0.15491 a 0.93214038,0.93214038 0 0 0 -0.38924,-0.0851 h -1.115748 a 0.93214038,0.93214038 0 0 0 -0.62786,0.24526 c -0.364448,-0.1787 -0.755941,-0.30036 -1.16672,-0.31278 a 0.93214038,0.93214038 0 0 0 -0.06818,-0.003 c -0.449348,0 -0.883411,0.13008 -1.279582,0.33264 -0.06082,-0.15623 -0.04694,-0.33598 -0.140011,-0.4753 -0.262397,-0.39483 -0.646621,-0.70345 -1.077345,-0.89697 -0.42625,-0.19249 -0.894443,-0.28034 -1.374583,-0.28034 -0.476683,0 -0.939503,0.0779 -1.366279,0.24891 -0.2929353,0.11581 -0.5179653,0.34301 -0.7529933,0.55176 a 0.93214038,0.93214038 0 0 0 -0.735453,-0.36011 h -1.189868 a 0.93214038,0.93214038 0 0 0 -0.931726,0.93303 v 0.12875 a 0.93214038,0.93214038 0 0 0 -0.3703607,0.36806 c -0.4991029,-0.24389 -1.0471297,-0.39785 -1.6549264,-0.39785 -0.1197762,0 -0.231385,0.0352 -0.3491788,0.046 v -0.58651 a 0.93214038,0.93214038 0 0 0 -0.9320472,-0.93205 z m 1.77538047,0.93173 v 1.83496 c 0.3300803,-0.24196 0.756636,-0.36242 1.2799041,-0.36242 0.7093561,0 1.2573829,0.16392 1.6436737,0.49184 0.3862915,0.3279 0.5792085,0.78909 0.5792085,1.38383 v 0.0576 c 0,0.21414 -0.02586,0.40958 -0.0748,0.58848 -0.0093,0 -0.04011,0.0208 -0.0695,0.0457 -0.1908497,0.16177 -0.5750563,0.28986 -0.9906309,0.33065 -0.2372313,0.0232 -0.6644481,0.0259 -0.9174899,0.005 -0.058195,-0.004 -0.1361132,-0.0147 -0.2197773,-0.0268 0.1987807,-0.0602 0.3351475,-0.17379 0.4074404,-0.34258 0.056145,-0.1289 0.08441,-0.35271 0.08441,-0.67156 0,-0.35278 -0.073597,-0.60405 -0.2210987,-0.75332 -0.1439758,-0.15151 -0.3672092,-0.22706 -0.6692436,-0.22706 -0.4003397,0 -0.6775983,0.0982 -0.8320979,0.29492 v 1.45896 c 0.00576,0.007 0.01271,0.0136 0.018539,0.0205 -0.06304,-0.002 -0.1041689,-0.004 -0.2214374,-0.004 -0.214354,0 -0.5682946,0.003 -0.7864106,0.007 -0.4379775,0.007 -0.4837665,0.002 -0.6503826,-0.0828 0,0 -0.053957,-0.0227 -0.077783,-0.0394 -0.021776,-0.0153 -0.057923,-0.0546 -0.057923,-0.0546 v -3.95425 z m 8.2821883,0 c 0.369328,0 0.699917,0.0659 0.991631,0.19759 0.294069,0.13174 0.522167,0.31999 0.684461,0.56465 0.162312,0.2423 0.243604,0.51988 0.243604,0.83276 h -1.235217 c 0,-0.20937 -0.06458,-0.37158 -0.193968,-0.48687 -0.127029,-0.11525 -0.299864,-0.17311 -0.518641,-0.17311 -0.221133,0 -0.396561,0.0495 -0.52593,0.14828 -0.127029,0.0965 -0.190323,0.21981 -0.190323,0.37037 0,0.13174 0.07036,0.25188 0.211506,0.36011 0.141147,0.10586 0.389478,0.21638 0.744706,0.33165 0.355212,0.11293 0.646943,0.23534 0.875124,0.36706 0.555179,0.31994 0.832743,0.76104 0.832743,1.32327 0,0.44933 -0.169294,0.80207 -0.508051,1.05848 -0.33874,0.25642 -0.803645,0.3846 -1.394105,0.3846 -0.416388,0 -0.793867,-0.0739 -1.1326237,-0.2221 C 9.5381313,295.69418 9.28402,295.48918 9.112287,295.2304 8.942925,294.9693 8.858414,294.66955 8.858414,294.3308 h 1.242182 c 0,0.27525 0.07034,0.47859 0.21149,0.61033 0.143518,0.12939 0.37514,0.1943 0.69507,0.1943 0.20466,0 0.365938,-0.0437 0.483563,-0.13075 0.119979,-0.0894 0.180054,-0.21405 0.180054,-0.37401 0,-0.18113 -0.0649,-0.32218 -0.194289,-0.42333 -0.127013,-0.10115 -0.351568,-0.20588 -0.67387,-0.3141 -0.322268,-0.10822 -0.585733,-0.21294 -0.790393,-0.3141 -0.665753,-0.32699 -0.998579,-0.77644 -0.998579,-1.3481 0,-0.28464 0.08226,-0.53491 0.246925,-0.75133 0.167023,-0.21877 0.4021873,-0.38841 0.7056443,-0.50839 0.3034917,-0.12231 0.6446547,-0.18335 1.0234047,-0.18335 z m -4.044271,0.44119 h 1.189207 v 0.94927 h 0.628217 v 0.82547 H 8.134552 v 1.74692 c 0,0.14351 0.02603,0.24337 0.07778,0.29987 0.05175,0.0564 0.153906,0.0847 0.30683,0.0847 0.117624,0 0.216591,-0.007 0.29656,-0.0212 v 0.8503 c -0.214066,0.0682 -0.437672,0.10227 -0.670582,0.10227 -0.409305,0 -0.711627,-0.0964 -0.906883,-0.28928 -0.195254,-0.19291 -0.292916,-0.48592 -0.292916,-0.87876 v -1.89487 H 6.458456 v -0.82581 h 0.486885 z m 6.490234,0.31477 c -0.0017,0 -0.0017,0.003 -0.0027,0.004 0,0 -0.0019,0 -0.0027,0 z m 1.425541,0.56366 c 0.496357,0 0.890224,0.13783 1.181938,0.41307 0.291696,0.27522 0.437553,0.64789 0.437553,1.11839 h -1.115067 c 0,-0.19761 -0.0482,-0.34925 -0.144654,-0.4551 -0.09644,-0.10584 -0.225911,-0.15887 -0.38824,-0.15887 -0.308168,0 -0.488071,0.19661 -0.539824,0.58948 -0.01644,0.12467 -0.02449,0.29622 -0.02449,0.515 0,0.38348 0.0456,0.64946 0.13735,0.79768 0.09175,0.14819 0.237604,0.22208 0.437553,0.22208 0.16704,0 0.296493,-0.0446 0.388241,-0.13404 0.09178,-0.0918 0.136621,-0.21863 0.134062,-0.38096 h 1.115067 c 0,0.41875 -0.15033,0.76218 -0.451449,1.03034 -0.298747,0.26819 -0.684614,0.40215 -1.157451,0.40215 -0.555178,0 -0.992749,-0.17414 -1.312678,-0.52228 -0.31993,-0.34819 -0.47992,-0.83041 -0.47992,-1.44674 v -0.0493 c 0,-0.3858 0.07068,-0.72569 0.211829,-1.01975 0.143502,-0.2964 0.349112,-0.52355 0.617287,-0.68117 0.268158,-0.15996 0.585902,-0.23996 0.952891,-0.23996 z m 3.853626,0 c 0.127029,0 0.23757,0.0141 0.331656,0.0423 l -0.02118,1.10449 -0.391561,-0.0281 c -0.37404,0 -0.614016,0.11757 -0.71988,0.35282 v 2.41718 h -1.189226 v -3.81823 h 1.115084 l 0.03872,0.49053 c 0.199949,-0.37406 0.478818,-0.56103 0.836385,-0.56103 z m -12.508159,2.9805 c 0.05784,0 0.09992,0.3656 0.05528,0.48258 -0.04067,0.10653 -0.129233,0.16821 -0.3846138,0.26709 -0.2254366,0.0873 -0.4777675,0.15067 -0.7725142,0.19429 -0.2044914,0.0303 -0.7816996,0.0452 -0.9982398,0.0258 v 0 c -0.1617693,-0.0144 -0.3932052,-0.046 -0.5064066,-0.0692 l -0.075462,-0.0152 -0.032757,-0.0867 c -0.024369,-0.064 -0.042179,-0.09 -0.068192,-0.10029 -0.2148792,-0.0846 -0.3379942,-0.11054 -0.5256068,-0.11054 -0.096086,0 -0.2495514,0.0306 -0.273378,0.0543 -0.00661,0.006 -0.028843,0.0599 -0.049653,0.11882 l -0.03774,0.10724 -0.394849,0.004 c -0.4408245,0.004 -0.6113214,-0.007 -0.7927147,-0.0559 -0.1860536,-0.0498 -0.2948489,-0.11528 -0.3289957,-0.19693 -0.032723,-0.0785 -0.019132,-0.38575 0.024165,-0.54679 l 0.015252,-0.0573 0.078123,0.0394 c 0.1666162,0.084 0.2124221,0.0899 0.6503825,0.0827 0.218116,-0.003 0.5720568,-0.007 0.7864106,-0.007 0.3878503,0 0.3904601,0 0.59346,0.045 0.1122015,0.0245 0.2383159,0.0561 0.2803258,0.0705 0.1133878,0.0389 0.569735,0.11834 0.7791408,0.13537 0.2530425,0.0208 0.6805808,0.018 0.9178121,-0.005 0.4155913,-0.0408 0.7994424,-0.16922 0.9903088,-0.33098 0.02952,-0.025 0.0614,-0.0453 0.0705,-0.0453 z m -5.55852607,0.58153 c 0.00423,0.002 0.016946,0.004 0.021522,0.006 0.0017,0 0.036079,0.0202 0.036079,0.0202 z" />
  </g>
</svg>
