<?xml version="1.0" standalone="no"?>
<!DOCTYPE svg PUBLIC "-//W3C//DTD SVG 20010904//EN"
 "http://www.w3.org/TR/2001/REC-SVG-20010904/DTD/svg10.dtd">
<svg version="1.0" xmlns="http://www.w3.org/2000/svg"
 width="1768.000000pt" height="1768.000000pt" viewBox="0 0 1768.000000 1768.000000"
 preserveAspectRatio="xMidYMid meet">
<metadata>
Created by potrace 1.11, written by Peter Selinger 2001-2013
</metadata>
<g transform="translate(0.000000,1768.000000) scale(0.100000,-0.100000)"
fill="#000000" stroke="none">
<path d="M1908 17555 c-2 -2 -39 -6 -82 -9 -44 -4 -98 -11 -120 -16 -23 -5
-61 -11 -85 -15 -23 -3 -55 -11 -70 -16 -14 -6 -26 -10 -26 -9 0 4 -91 -22
-165 -47 -116 -39 -347 -155 -456 -229 -264 -178 -467 -393 -623 -657 -138
-235 -227 -497 -266 -782 -11 -83 -14 -958 -13 -5260 0 -3033 3 -5189 9 -5230
5 -38 11 -83 14 -100 11 -65 15 -91 21 -115 3 -14 8 -36 10 -50 12 -64 98
-300 146 -397 28 -59 52 -117 51 -128 -1 -25 -11 -111 -23 -190 -5 -33 -12
-94 -15 -135 -4 -41 -8 -91 -10 -110 -20 -175 -27 -728 -13 -1035 6 -121 24
-263 42 -330 74 -274 205 -585 344 -820 319 -536 772 -897 1397 -1112 271 -93
840 -241 1032 -268 21 -3 49 -8 63 -11 24 -4 48 -8 115 -19 17 -2 53 -7 80
-10 28 -4 61 -8 75 -11 14 -2 59 -6 100 -10 41 -3 86 -8 100 -10 14 -2 68 -6
120 -10 52 -3 111 -8 130 -10 184 -17 1557 -26 2260 -14 271 5 403 24 655 93
45 13 122 41 129 48 6 5 16 9 23 9 41 0 380 188 445 247 17 16 20 15 46 -5 79
-62 234 -160 334 -211 199 -102 362 -155 628 -207 14 -3 70 -14 125 -25 92
-18 228 -43 300 -55 17 -2 41 -6 55 -9 14 -2 45 -7 70 -10 25 -3 74 -11 110
-16 161 -25 188 -28 250 -34 30 -3 66 -8 80 -10 14 -2 48 -7 75 -10 28 -3 64
-7 80 -9 17 -3 63 -7 104 -11 41 -4 84 -9 95 -11 12 -2 50 -6 86 -9 36 -3 92
-9 125 -12 33 -4 139 -6 235 -4 359 6 480 5 675 -4 357 -15 1165 -10 1390 9
72 7 229 18 275 21 25 2 70 6 100 9 88 11 122 15 180 21 30 4 66 8 80 10 14 2
45 7 70 10 25 3 88 13 140 21 52 9 109 18 125 20 17 3 55 9 85 14 30 5 69 12
85 14 97 17 310 59 509 101 86 19 306 71 416 100 74 20 142 37 150 39 139 36
688 208 715 224 6 4 15 7 20 8 24 5 415 158 550 216 112 47 332 155 430 210
76 43 287 175 320 201 6 4 33 24 60 44 192 141 374 327 618 633 104 130 307
489 354 625 12 33 37 105 57 160 60 165 126 411 151 560 4 22 9 51 11 65 3 14
6 99 8 190 3 138 0 188 -19 305 -13 77 -26 151 -29 165 -5 21 -15 76 -31 180
-2 14 -11 82 -20 151 -8 69 -18 136 -20 150 -3 13 -8 40 -11 59 -30 187 -123
498 -203 674 l-32 69 15 81 c8 45 17 99 21 121 3 22 7 47 10 55 2 8 6 40 10
70 3 30 7 64 9 75 5 25 15 105 21 170 3 28 7 66 10 85 27 226 39 510 39 900
-1 310 -8 582 -19 650 -2 14 -7 63 -10 110 -3 47 -8 96 -10 110 -2 14 -7 48
-10 75 -3 28 -7 64 -9 80 -3 17 -7 53 -11 80 -3 28 -8 61 -11 75 -2 14 -11 68
-19 120 -9 52 -25 142 -37 200 -11 58 -21 110 -22 115 -4 24 -40 177 -58 245
-10 41 -21 84 -23 94 -2 10 -16 60 -30 110 -191 671 -471 1287 -833 1836 -53
80 -100 150 -104 155 -5 6 -54 71 -109 145 -88 118 -172 224 -189 240 -3 3
-18 21 -34 40 -121 149 -372 403 -591 599 -39 35 -237 196 -325 264 -110 85
-389 276 -525 358 -49 30 -99 59 -110 66 -11 7 -31 18 -45 25 -14 7 -27 15
-30 18 -17 19 -427 226 -603 304 -133 60 -401 169 -457 186 -14 5 -70 25 -125
45 -146 53 -602 190 -700 209 -11 3 -76 18 -145 35 -161 38 -358 78 -525 106
-109 18 -142 24 -175 30 -14 3 -45 7 -70 10 -25 3 -56 7 -69 10 -14 2 -47 7
-75 10 -28 3 -62 7 -76 10 -26 4 -109 14 -170 20 -19 2 -60 6 -90 9 -30 3 -84
8 -120 11 -36 3 -78 7 -95 10 -16 2 -79 7 -140 10 -60 4 -130 8 -155 10 -276
23 -926 22 -1042 0 -12 -3 -48 -8 -78 -11 -55 -5 -83 -9 -130 -18 -14 -3 -43
-8 -65 -11 -38 -5 -123 -20 -175 -30 -40 -8 -393 -66 -415 -68 -20 -2 -20 4
-21 988 -1 900 -4 1045 -19 1140 -3 17 -7 41 -9 55 -21 132 -70 319 -101 387
-8 17 -15 35 -15 39 0 21 -108 235 -163 324 -67 108 -181 251 -275 346 -86 87
-178 170 -211 188 -9 5 -23 16 -31 25 -33 33 -202 135 -315 191 -180 88 -423
163 -600 186 -27 3 -61 8 -75 11 -23 6 -4837 13 -4842 8z m4622 -2082 c1 -32
1 -1079 1 -2326 0 -1248 3 -2267 7 -2265 4 2 72 46 152 100 422 281 891 484
1438 622 97 24 193 47 212 50 37 6 47 8 120 25 25 5 92 17 150 25 58 9 114 18
125 20 11 2 49 7 85 11 36 3 76 8 90 10 14 2 54 6 90 10 36 3 83 8 105 10 22
2 85 7 140 10 55 4 129 8 165 10 73 5 687 5 795 1 63 -3 229 -13 357 -21 26
-2 75 -6 110 -10 35 -3 86 -8 113 -11 122 -11 380 -42 405 -49 8 -2 35 -6 60
-9 25 -3 54 -8 65 -10 11 -2 65 -11 120 -21 256 -43 621 -135 885 -222 429
-142 788 -308 1137 -527 48 -30 93 -59 98 -63 6 -5 39 -29 75 -53 230 -159
549 -440 720 -636 86 -98 141 -164 193 -234 31 -41 60 -79 65 -85 35 -43 196
-295 244 -383 49 -91 168 -331 168 -340 0 -5 9 -26 19 -48 25 -51 89 -218 102
-264 6 -19 14 -44 19 -55 45 -100 159 -572 186 -770 4 -27 8 -59 10 -70 9 -51
22 -161 30 -250 3 -33 7 -76 9 -95 24 -183 24 -984 1 -1190 -3 -19 -7 -65 -11
-102 -3 -37 -8 -77 -10 -90 -2 -13 -7 -50 -10 -83 -4 -33 -9 -69 -10 -80 -2
-11 -6 -40 -9 -65 -4 -25 -8 -52 -11 -60 -2 -8 -6 -32 -10 -53 -3 -22 -12 -69
-20 -105 -8 -37 -16 -78 -19 -92 -2 -14 -16 -72 -30 -129 -24 -94 -43 -130
-69 -131 -4 0 -42 -26 -84 -57 -248 -189 -342 -249 -554 -354 -256 -127 -704
-286 -969 -344 -8 -2 -72 -17 -143 -34 -70 -17 -142 -33 -160 -36 -17 -3 -52
-9 -77 -15 -25 -5 -83 -16 -130 -24 -78 -14 -118 -20 -197 -31 -15 -2 -41 -6
-58 -8 -16 -3 -59 -9 -95 -12 -36 -4 -72 -8 -80 -10 -8 -1 -51 -6 -95 -10 -44
-4 -93 -9 -110 -10 -33 -3 -215 -15 -310 -20 -422 -22 -1333 -22 -1665 0 -25
1 -99 6 -164 10 -66 4 -127 8 -135 10 -9 1 -50 6 -91 10 -41 4 -82 9 -90 10
-8 2 -42 6 -75 10 -33 4 -73 9 -90 11 -16 2 -52 7 -80 10 -47 6 -88 24 -54 24
23 0 208 74 301 121 354 176 609 461 737 823 31 87 74 248 86 316 3 19 10 60
15 90 16 90 36 245 45 345 3 33 7 80 10 105 27 294 27 1135 1 1290 -3 14 -7
54 -11 90 -3 36 -8 74 -10 85 -2 11 -7 38 -10 59 -3 21 -7 48 -10 60 -2 12 -7
37 -9 56 -11 70 -58 248 -97 365 -198 593 -602 968 -1224 1138 -103 29 -169
43 -240 52 -28 4 -53 9 -57 11 -3 2 -35 7 -70 10 -34 3 -65 7 -69 9 -37 23
-791 23 -929 0 -14 -2 -52 -7 -85 -10 -33 -3 -116 -15 -184 -26 -576 -93
-1010 -308 -1298 -642 l-42 -48 1 -1851 c0 -1803 1 -1850 19 -1866 10 -9 19
-19 19 -22 0 -3 -357 -6 -792 -6 -436 -1 -1065 -5 -1398 -9 -1246 -16 -1407
-11 -1660 59 -75 21 -392 159 -475 208 -11 6 -32 18 -46 25 -14 7 -58 43 -97
79 l-72 66 0 5013 c0 2756 3 5014 6 5017 3 3 1015 6 2250 7 l2244 2 0 -58z
m8912 -10870 c44 -50 75 -145 112 -340 52 -272 51 -686 -1 -843 -60 -180 -197
-325 -428 -452 -149 -83 -449 -211 -710 -304 -11 -4 -56 -20 -100 -36 -74 -27
-133 -46 -210 -68 -16 -5 -75 -23 -130 -40 -55 -17 -109 -32 -120 -35 -11 -2
-47 -12 -80 -21 -33 -9 -67 -17 -75 -19 -8 -2 -69 -17 -135 -33 -108 -27 -321
-75 -385 -86 -14 -2 -74 -13 -135 -25 -60 -11 -123 -23 -140 -26 -16 -3 -55
-9 -85 -14 -30 -6 -75 -13 -100 -17 -25 -3 -54 -8 -65 -10 -23 -3 -87 -11
-160 -20 -27 -3 -61 -7 -75 -9 -14 -2 -68 -7 -120 -10 -52 -4 -113 -9 -135
-11 -37 -3 -181 -11 -355 -19 -548 -27 -1436 -27 -1754 -1 -68 6 -247 25 -291
31 -16 2 -57 7 -90 10 -33 3 -71 8 -85 10 -14 3 -47 7 -75 11 -27 3 -61 7 -75
9 -14 3 -77 12 -140 20 -63 9 -126 18 -140 20 -14 3 -45 7 -70 11 -25 3 -52 7
-60 9 -8 3 -33 7 -55 10 -51 8 -335 64 -356 70 -9 3 -24 27 -34 53 -93 254
-135 340 -184 384 -91 83 -694 268 -951 293 -36 4 -76 9 -90 12 -62 12 -469
11 -565 -2 -150 -20 -171 -24 -285 -52 -150 -36 -184 -54 -211 -111 -31 -67
-83 -204 -144 -377 l-53 -150 -133 -5 c-183 -7 -1941 -4 -2009 3 -30 3 -95 9
-145 12 -49 4 -103 8 -120 10 -16 2 -73 9 -125 16 -52 6 -104 13 -115 15 -28
5 -124 23 -160 30 -78 13 -312 77 -415 112 -252 86 -412 174 -520 284 -85 87
-121 163 -137 291 -16 123 -7 667 11 762 2 12 7 50 10 86 4 36 9 76 11 90 2
13 9 53 15 89 6 36 13 74 14 85 6 32 67 269 71 273 2 2 90 -39 197 -91 249
-122 352 -160 498 -182 25 -4 54 -9 65 -11 80 -15 285 -19 950 -15 1461 7
2961 6 3050 -2 50 -5 122 -13 160 -18 39 -6 85 -12 104 -15 19 -2 37 -6 40 -8
4 -3 27 -7 51 -11 25 -3 72 -12 105 -20 93 -22 192 -44 223 -50 64 -11 489
-119 627 -160 180 -52 379 -97 640 -144 33 -6 69 -13 80 -15 11 -2 36 -6 55
-10 19 -3 46 -8 60 -11 14 -3 95 -17 180 -31 153 -25 167 -27 245 -39 22 -3
67 -10 100 -15 129 -19 164 -24 255 -35 36 -4 72 -8 80 -10 8 -2 44 -6 80 -10
36 -3 76 -8 90 -10 23 -3 61 -6 255 -20 363 -26 1651 -26 1860 -1 17 2 81 7
143 11 62 3 120 8 130 10 9 1 53 6 97 10 81 6 129 12 175 20 14 3 48 7 75 11
51 6 63 7 125 18 79 13 97 16 130 22 19 3 42 7 50 9 8 3 33 7 55 11 22 3 60
10 85 16 25 5 56 12 70 14 14 3 81 19 150 35 620 152 1133 369 1465 619 49 38
99 77 110 87 34 32 119 82 141 82 11 1 28 -7 36 -16z"/>
</g>
</svg>
