<?xml version="1.0" encoding="UTF-8" standalone="no"?>
<svg
   width="131.729"
   height="27"
   viewBox="0 0 34.853298 7.1437502"
   version="1.1"
   id="svg1323"
   inkscape:version="1.1.1 (c3084ef, 2021-09-22)"
   sodipodi:docname="logo.svg"
   xmlns:inkscape="http://www.inkscape.org/namespaces/inkscape"
   xmlns:sodipodi="http://sodipodi.sourceforge.net/DTD/sodipodi-0.dtd"
   xmlns="http://www.w3.org/2000/svg"
   xmlns:svg="http://www.w3.org/2000/svg"
   xmlns:rdf="http://www.w3.org/1999/02/22-rdf-syntax-ns#"
   xmlns:cc="http://creativecommons.org/ns#"
   xmlns:dc="http://purl.org/dc/elements/1.1/">
  <defs
     id="defs1317" />
  <sodipodi:namedview
     id="base"
     pagecolor="#ffffff"
     bordercolor="#666666"
     borderopacity="1.0"
     inkscape:pageopacity="0.0"
     inkscape:pageshadow="2"
     inkscape:zoom="4"
     inkscape:cx="92"
     inkscape:cy="14.75"
     inkscape:document-units="px"
     inkscape:current-layer="layer1"
     showgrid="false"
     units="px"
     inkscape:window-width="1680"
     inkscape:window-height="948"
     inkscape:window-x="0"
     inkscape:window-y="25"
     inkscape:window-maximized="1"
     inkscape:document-rotation="0"
     inkscape:pagecheckerboard="0" />
  <metadata
     id="metadata1320">
    <rdf:RDF>
      <cc:Work
         rdf:about="">
        <dc:format>image/svg+xml</dc:format>
        <dc:type
           rdf:resource="http://purl.org/dc/dcmitype/StillImage" />
      </cc:Work>
    </rdf:RDF>
  </metadata>
  <g
     inkscape:label="Ebene 1"
     inkscape:groupmode="layer"
     id="layer1"
     transform="translate(0,-289.85624)">
    <path
       d="m 2.7047443,289.8568 -0.00103,0.002 H 0.9306925 A 0.93097878,0.93097878 0 0 0 0,290.78949 v 3.94911 a 0.93097878,0.93097878 0 0 0 0.1080037,0.43408 c -0.00979,0.0794 -0.03175,0.16913 -0.03514,0.24702 -0.0032,0.0796 -0.00433,0.15713 0.00207,0.24546 0.00576,0.0883 -0.014047,0.15597 0.085783,0.39533 0.2376457,0.56889 0.6527095,0.65816 0.9467122,0.7369 0.2836524,0.0758 0.5818004,0.0926 1.0417969,0.0879 l 0.3937744,-0.004 a 0.93097878,0.93097878 0 0 0 0.4702555,-0.13435 0.93097878,0.93097878 0 0 0 0.3234944,0.13332 l 0.07183,0.0145 c 0,5e-5 1.471e-4,-7e-5 0.00207,0 h 0.00258 c 0.1930334,0.0393 0.404028,0.0657 0.6061644,0.0837 0.4051236,0.0362 0.8051934,0.0282 1.2159464,-0.0326 0.3473722,-0.0514 0.6691741,-0.13012 0.9710001,-0.24701 0.1545307,-0.0598 0.2946797,-0.11388 0.4676717,-0.2341 0.01337,-0.009 0.026682,-0.0281 0.040308,-0.0388 0.486179,0.36952 1.0971826,0.56431 1.7208251,0.56431 0.699549,0 1.384898,-0.24398 1.8898072,-0.70797 0.507487,0.4693 1.200196,0.70797 1.902726,0.70797 0.679276,0 1.343568,-0.23214 1.844332,-0.66973 0.03115,0.0365 0.05353,0.0777 0.08837,0.11214 0.426477,0.42131 1.005186,0.55759 1.560112,0.55759 0.32339,0 0.645337,-0.0479 0.952396,-0.14573 a 0.93097878,0.93097878 0 0 0 0.335897,-0.19275 c 0.02079,0.01 0.03793,0.0263 0.05891,0.0357 a 0.93097878,0.93097878 0 0 0 0.0072,0.003 c 0.467123,0.20438 0.978811,0.29972 1.504817,0.29972 0.724433,0 1.408049,-0.15993 1.953886,-0.57309 0.0348,-0.0264 0.06048,-0.0629 0.09353,-0.0915 0.491271,0.43232 1.145382,0.66456 1.811775,0.66456 0.635521,0 1.27041,-0.20374 1.747697,-0.61805 0.495435,0.4049 1.134682,0.61805 1.787488,0.61805 0.502409,0 0.995423,-0.13178 1.424201,-0.37155 a 0.93097878,0.93097878 0 0 0 0.683681,0.30075 h 1.18804 a 0.93097878,0.93097878 0 0 0 0.918292,-0.78393 c 0.02149,0.0224 0.03704,0.0497 0.05943,0.0713 a 0.93097878,0.93097878 0 0 0 0.0026,0.002 c 0.54264,0.52148 1.296009,0.78135 2.065507,0.78135 0.43102,0 0.858899,-0.0855 1.251088,-0.25941 a 0.93097878,0.93097878 0 0 0 0.0036,-0.002 c 0.392144,-0.17578 0.74821,-0.4411 1.003556,-0.79375 a 0.93097878,0.93097878 0 0 0 0.09457,-0.92553 0.93097878,0.93097878 0 0 0 0.184486,-0.55448 v -0.46147 c 2.3e-5,-0.75542 -0.215734,-1.48905 -0.714688,-2.02314 -0.492043,-0.52876 -1.221152,-0.79685 -1.949751,-0.79685 -0.413547,0 -0.813559,0.0998 -1.185458,0.26407 a 0.93097878,0.93097878 0 0 0 -0.334862,-0.1819 c -0.204031,-0.0611 -0.402405,-0.0811 -0.598413,-0.0811 -0.198176,0 -0.391755,0.0488 -0.578776,0.11989 a 0.93097878,0.93097878 0 0 0 -0.295071,-0.0496 h -1.114145 a 0.93097878,0.93097878 0 0 0 -0.686263,0.30385 c -0.429652,-0.24124 -0.924086,-0.37465 -1.428337,-0.37465 -0.506285,0 -1.007346,0.11427 -1.441256,0.36432 -0.122303,0.0705 -0.221242,0.17305 -0.329695,0.26355 -0.478797,-0.42554 -1.121903,-0.62735 -1.767851,-0.62735 -0.425012,0 -0.839752,0.10414 -1.220081,0.28525 -0.05911,-0.1464 -0.110716,-0.29671 -0.198437,-0.42788 -0.26221,-0.39435 -0.645601,-0.7029 -1.075903,-0.89607 -0.425485,-0.19193 -0.893352,-0.27957 -1.372526,-0.27957 -0.477524,0 -0.94013,0.0789 -1.366325,0.25011 -0.29287,0.11609 -0.552787,0.29573 -0.788066,0.5054 a 0.93097878,0.93097878 0 0 0 -0.697115,-0.31471 h -1.187524 a 0.93097878,0.93097878 0 0 0 -0.931209,0.93069 v 0.13074 a 0.93097878,0.93097878 0 0 0 -0.134359,0.0899 c -0.383304,-0.17582 -0.805811,-0.2744 -1.236101,-0.2744 -0.506264,0 -1.007326,0.11423 -1.441255,0.36432 -0.165731,0.0955 -0.306968,0.22593 -0.446484,0.35708 -0.5061132,-0.4725 -1.1982222,-0.7214 -1.904794,-0.7214 -0.5062717,0 -1.0073266,0.11423 -1.4412557,0.36432 -0.2621013,0.15104 -0.4807786,0.36234 -0.6728272,0.59634 -0.031345,-0.0298 -0.054184,-0.067 -0.087333,-0.0951 -0.6002872,-0.50957 -1.3916834,-0.7121 -2.2432737,-0.7121 -0.1193731,0 -0.2303733,0.0353 -0.3477824,0.046 v -0.58653 a 0.93097878,0.93097878 0 0 0 -0.9312095,-0.93069 z m -1.7740518,0.93276 h 1.7730184 v 1.83245 c 0.3296655,-0.24166 0.7558526,-0.36124 1.2784748,-0.36122 0.7084658,0 1.2554323,0.1629 1.6412435,0.49041 0.3858305,0.32748 0.5792928,0.78833 0.5792928,1.38234 v 0.0574 c 0,0.21386 -0.026064,0.4094 -0.074931,0.58808 -0.00928,0 -0.040427,0.0206 -0.069763,0.0455 -0.1905963,0.16157 -0.5740288,0.28997 -0.9890868,0.33072 -0.2369357,0.0233 -0.6634742,0.0252 -0.9162232,0.005 -0.058084,-0.005 -0.136081,-0.0148 -0.2196248,-0.0269 0.1985351,-0.0601 0.3349892,-0.17352 0.4072104,-0.34209 0.056037,-0.12875 0.084232,-0.35231 0.084232,-0.67076 0,-0.35235 -0.07386,-0.60283 -0.221175,-0.7519 -0.1437966,-0.15132 -0.3665231,-0.22686 -0.6681764,-0.22686 -0.3998396,0 -0.6771671,0.0981 -0.8314737,0.29456 v 1.45676 c 0.00576,0.007 0.012847,0.0137 0.018603,0.0207 -0.06301,-0.002 -0.1040537,-0.004 -0.221175,-0.004 -0.2140858,0 -0.5671242,0.003 -0.784965,0.006 -0.4374537,0.007 -0.4831632,0.002 -0.6495728,-0.0827 0,0 -0.054209,-0.0227 -0.078031,-0.0393 -0.02175,-0.0152 -0.057878,-0.0548 -0.057878,-0.0548 z m 17.6299315,0 c 0.368866,0 0.698772,0.0659 0.990121,0.1974 0.293689,0.13158 0.521569,0.31944 0.683679,0.56379 0.162124,0.24201 0.243396,0.5195 0.243396,0.83199 h -1.233517 c 0,-0.20911 -0.06457,-0.37115 -0.193786,-0.48627 -0.12687,-0.11514 -0.299815,-0.17312 -0.518315,-0.17312 -0.22086,0 -0.395292,0.0496 -0.524516,0.14831 -0.126877,0.0963 -0.190686,0.21963 -0.190686,0.37001 0,0.13156 0.07038,0.25109 0.211357,0.35915 0.14097,0.10573 0.388838,0.21609 0.743624,0.33124 0.354767,0.11277 0.646449,0.23533 0.874365,0.36691 0.554486,0.31953 0.831474,0.75981 0.831474,1.32136 0,0.44875 -0.169123,0.80119 -0.507463,1.0573 -0.338333,0.2561 -0.802437,0.38396 -1.392163,0.38396 -0.415871,0 -0.792858,-0.0737 -1.131197,-0.22169 -0.33598,-0.15037 -0.589673,-0.35496 -0.761194,-0.6134 -0.169167,-0.2608 -0.253731,-0.56033 -0.253731,-0.89866 h 1.240751 c 0,0.2749 0.06987,0.47821 0.21084,0.60979 0.143323,0.12922 0.374985,0.19378 0.694531,0.19378 0.204407,0 0.365178,-0.0433 0.482658,-0.13022 0.119834,-0.0893 0.179834,-0.21387 0.179834,-0.37362 0,-0.18092 -0.06457,-0.32169 -0.193787,-0.42271 -0.126877,-0.10104 -0.351457,-0.20612 -0.673344,-0.3142 -0.321881,-0.10807 -0.584698,-0.21264 -0.789099,-0.31367 -0.664909,-0.32657 -0.997355,-0.77472 -0.997355,-1.34566 0,-0.28429 0.08202,-0.53469 0.246497,-0.75086 0.166813,-0.21851 0.402291,-0.38763 0.705383,-0.50746 0.30308,-0.12218 0.643361,-0.18345 1.021643,-0.18345 z m -4.039547,0.4408 h 1.188042 v 0.94775 h 0.627352 v 0.82475 h -0.627352 v 1.7446 c 0,0.14332 0.0258,0.2428 0.07751,0.2992 0.05169,0.0564 0.153708,0.0847 0.306442,0.0847 0.117472,0 0.216214,-0.007 0.296105,-0.0212 v 0.84956 c -0.213817,0.0681 -0.437121,0.1018 -0.669726,0.1018 -0.408808,0 -0.71036,-0.0962 -0.905371,-0.28887 -0.195016,-0.19266 -0.293006,-0.48509 -0.293006,-0.87747 v -1.89291 h -0.486275 v -0.82423 h 0.486275 z m -6.0942014,0.87695 c 0.5709382,0 1.0213622,0.1775 1.3503052,0.53227 0.3289432,0.35243 0.4929932,0.83272 0.4929932,1.44125 v 0.0424 c 0,0.59443 -0.16583,1.06635 -0.4971272,1.41645 -0.328923,0.34772 -0.775054,0.52193 -1.3389365,0.52193 -0.5427405,0 -0.9785222,-0.16204 -1.3074136,-0.48628 -0.3289427,-0.32657 -0.5064236,-0.76868 -0.5322673,-1.3255 l -0.00362,-0.2005 c 0,-0.38063 0.074184,-0.7194 0.2222087,-1.01544 0.1480119,-0.29839 0.3604318,-0.52701 0.6376871,-0.68678 0.2772362,-0.15978 0.6026132,-0.23978 0.9761678,-0.23978 z m 3.7925334,0 c 0.570938,0 1.020853,0.1775 1.349789,0.53227 0.328923,0.35243 0.49351,0.83272 0.49351,1.44125 v 0.0424 c 0,0.59443 -0.165333,1.06635 -0.496611,1.41645 -0.328923,0.34772 -0.775577,0.52193 -1.339453,0.52193 -0.542741,0 -0.978484,-0.16204 -1.307414,-0.48628 -0.328936,-0.32657 -0.506423,-0.76868 -0.532267,-1.3255 l -0.0031,-0.2005 c 0,-0.38063 0.07368,-0.7194 0.221692,-1.01544 0.148031,-0.29839 0.360431,-0.52701 0.637687,-0.68678 0.27723,-0.15978 0.602614,-0.23978 0.976168,-0.23978 z m 10.207646,0 c 0.495755,0 0.889477,0.13696 1.180806,0.41186 0.291354,0.2749 0.436666,0.64735 0.436666,1.11724 h -1.11311 c 0,-0.19735 -0.04833,-0.34904 -0.144694,-0.45475 -0.09632,-0.10574 -0.225463,-0.15865 -0.387574,-0.15865 -0.307788,0 -0.487292,0.19674 -0.538985,0.58912 -0.01644,0.12451 -0.0248,0.29568 -0.0248,0.51418 0,0.38299 0.04581,0.64882 0.137459,0.79685 0.09165,0.14801 0.236947,0.22169 0.436666,0.22169 0.166812,0 0.295937,-0.0446 0.387573,-0.13384 0.09163,-0.0916 0.136713,-0.21824 0.134359,-0.38034 h 1.11311 c 0,0.4182 -0.149893,0.76104 -0.450618,1.02888 -0.29839,0.26786 -0.683755,0.40152 -1.156002,0.40152 -0.554485,0 -0.991498,-0.17368 -1.311031,-0.52141 -0.319533,-0.34774 -0.479558,-0.8293 -0.479558,-1.44488 v -0.0496 c 0,-0.38532 0.07091,-0.72485 0.211874,-1.01854 0.143323,-0.29605 0.348661,-0.52264 0.6165,-0.68006 0.267858,-0.15978 0.584832,-0.23926 0.951363,-0.23926 z m 3.538802,0 c 0.570938,0 1.020846,0.1775 1.349787,0.53227 0.328925,0.35243 0.493511,0.83272 0.493511,1.44125 v 0.0424 c 0,0.59443 -0.165332,1.06635 -0.496609,1.41645 -0.328943,0.34772 -0.775579,0.52193 -1.339454,0.52193 -0.542742,0 -0.97849,-0.16204 -1.307414,-0.48628 -0.328942,-0.32657 -0.506423,-0.76868 -0.532267,-1.3255 l -0.0031,-0.2005 c 0,-0.38063 0.07368,-0.7194 0.221692,-1.01544 0.148012,-0.29839 0.36045,-0.52701 0.637687,-0.68678 0.277249,-0.15978 0.602594,-0.23978 0.976168,-0.23978 z m 4.102591,0 c 0.126879,0 0.237263,0.0141 0.331245,0.0424 l -0.02119,1.10278 -0.390676,-0.0279 c -0.373565,0 -0.613619,0.11749 -0.719335,0.35244 v 2.41432 h -1.187525 v -3.8132 h 1.113629 l 0.03876,0.48989 c 0.199694,-0.37357 0.47797,-0.56069 0.835091,-0.56069 z m 2.118733,0 c 0.535705,0 0.958517,0.1666 1.268659,0.50023 0.310134,0.3313 0.465106,0.79463 0.465087,1.38906 v 0.46147 H 31.55983 c 0.04228,0.2138 0.135232,0.38167 0.278535,0.50384 0.143325,0.12218 0.329176,0.18346 0.557073,0.18346 0.375928,0 0.669104,-0.13166 0.880567,-0.39481 l 0.543118,0.6413 c -0.148005,0.20441 -0.35842,0.36773 -0.630967,0.4899 -0.270195,0.11983 -0.561359,0.17983 -0.87385,0.17983 -0.585036,0 -1.058762,-0.1742 -1.420585,-0.52193 -0.361828,-0.35009 -0.542602,-0.80404 -0.542602,-1.36323 v -0.0992 c 0,-0.39001 0.07165,-0.7341 0.214974,-1.03249 0.145671,-0.29839 0.357348,-0.52829 0.634587,-0.6904 0.277249,-0.16446 0.60589,-0.24701 0.986501,-0.24701 z m -23.7603054,0.9157 c -0.3970634,0 -0.6120352,0.29498 -0.6449219,0.88471 l -0.0031,0.21549 c 0,0.35243 0.054961,0.61068 0.1653646,0.77514 0.1104236,0.16446 0.2737406,0.2465 0.4898924,0.2465 0.4229131,0 0.6391481,-0.32534 0.6485391,-0.97617 v -0.11989 c 0,-0.68371 -0.218749,-1.02578 -0.6557742,-1.02578 z m 3.7925334,0 c -0.397063,0 -0.612042,0.29498 -0.644922,0.88471 l -0.0031,0.21549 c 0,0.35243 0.05496,0.61068 0.165364,0.77514 0.110417,0.16446 0.273741,0.2465 0.489893,0.2465 0.422907,0 0.639142,-0.32534 0.648539,-0.97617 v -0.11989 c 0,-0.68371 -0.218748,-1.02578 -0.655774,-1.02578 z m 13.746448,0 c -0.397063,0 -0.612087,0.29498 -0.644922,0.88471 l -0.0036,0.21549 c 0,0.35243 0.05548,0.61068 0.165881,0.77514 0.110437,0.16446 0.273224,0.2465 0.489376,0.2465 0.422907,0 0.639148,-0.32534 0.648538,-0.97617 v -0.11989 c 0,-0.68371 -0.21825,-1.02578 -0.655256,-1.02578 z m 6.214091,0 c -0.347732,0 -0.554326,0.23042 -0.620118,0.69092 h 1.198378 v -0.0915 c 0.0045,-0.19032 -0.04366,-0.33743 -0.144696,-0.4408 -0.101025,-0.10574 -0.245596,-0.15865 -0.433564,-0.15865 z m -25.9813602,2.06138 c 0.057711,0.002 0.09974,0.36466 0.055294,0.48111 -0.040621,0.10639 -0.1294146,0.16789 -0.3844727,0.26665 -0.2251591,0.0872 -0.4771493,0.15071 -0.7715292,0.1943 -0.2042409,0.0303 -0.780584,0.0451 -0.9968383,0.0258 -0.1615673,-0.0144 -0.3923554,-0.0456 -0.5053955,-0.0687 l -0.075964,-0.0155 -0.032556,-0.0863 c -0.024308,-0.064 -0.041712,-0.09 -0.067696,-0.10026 -0.2146104,-0.0845 -0.3376538,-0.11058 -0.5250325,-0.11058 -0.095967,0 -0.249591,0.0306 -0.2733683,0.0543 -0.00659,0.007 -0.028819,0.0599 -0.049609,0.11885 l -0.037724,0.10697 -0.3942912,0.004 c -0.4402747,0.004 -0.6099988,-0.008 -0.7911661,-0.0563 -0.1858178,-0.0498 -0.294592,-0.1148 -0.3286621,-0.19637 -0.032688,-0.0784 -0.019473,-0.38539 0.023771,-0.54622 l 0.015503,-0.0574 0.078032,0.0393 c 0.1664096,0.084 0.2121382,0.0899 0.6495727,0.0827 0.2178408,-0.003 0.5708791,-0.006 0.784965,-0.006 0.3873656,0 0.3904821,-1.6e-4 0.5932456,0.0444 0.1120613,0.0244 0.238148,0.0564 0.280086,0.0708 0.1132322,0.0389 0.568602,0.11789 0.7777303,0.13487 0.2527424,0.0205 0.6798043,0.0178 0.91674,-0.005 0.4150579,-0.0407 0.7984585,-0.16917 0.9890868,-0.33073 0.02949,-0.025 0.061222,-0.045 0.07028,-0.045 z m -5.5515989,0.57929 c 0.00384,0.002 0.015351,0.005 0.019637,0.007 0.00192,0 0.038241,0.0202 0.038241,0.0202 z"
       style="color:#000000;font-style:normal;font-variant:normal;font-weight:900;font-stretch:normal;font-size:medium;line-height:125%;font-family:Roboto;-inkscape-font-specification:'Roboto Heavy';font-variant-ligatures:normal;font-variant-position:normal;font-variant-caps:normal;font-variant-numeric:normal;font-variant-alternates:normal;font-feature-settings:normal;text-indent:0;text-align:start;text-decoration:none;text-decoration-line:none;text-decoration-style:solid;text-decoration-color:#000000;letter-spacing:-0.418042px;word-spacing:0px;text-transform:none;writing-mode:lr-tb;direction:ltr;text-orientation:mixed;dominant-baseline:auto;baseline-shift:baseline;text-anchor:start;white-space:normal;shape-padding:0;clip-rule:nonzero;display:inline;overflow:visible;visibility:visible;isolation:auto;mix-blend-mode:normal;color-interpolation:sRGB;color-interpolation-filters:linearRGB;solid-color:#000000;solid-opacity:1;vector-effect:none;fill:#212529;fill-opacity:1;fill-rule:nonzero;stroke:none;stroke-width:1.86177;stroke-linecap:round;stroke-linejoin:round;stroke-miterlimit:4;stroke-dasharray:none;stroke-dashoffset:0;stroke-opacity:1;color-rendering:auto;image-rendering:auto;shape-rendering:auto;text-rendering:auto;enable-background:accumulate"
       id="path1312" />
  </g>
</svg>
